<svg xmlns="http://www.w3.org/2000/svg" viewBox="0 0 128 128" role="img" aria-label="LightChip Lab">
  <defs>
    <linearGradient id="bg" x1="0%" y1="0%" x2="100%" y2="100%">
      <stop offset="0%" stop-color="#16324f"/>
      <stop offset="55%" stop-color="#235b97"/>
      <stop offset="100%" stop-color="#81a7d2"/>
    </linearGradient>
    <linearGradient id="trace" x1="0%" y1="0%" x2="100%" y2="100%">
      <stop offset="0%" stop-color="#ffffff"/>
      <stop offset="100%" stop-color="#dcecff"/>
    </linearGradient>
  </defs>
  <rect x="8" y="8" width="112" height="112" rx="28" fill="url(#bg)"/>
  <rect x="28" y="26" width="72" height="76" rx="18" fill="none" stroke="rgba(255,255,255,0.28)" stroke-width="3"/>
  <path d="M40 38v34c0 7 5 12 12 12h14" fill="none" stroke="url(#trace)" stroke-width="9" stroke-linecap="round" stroke-linejoin="round"/>
  <path d="M66 50h18c7 0 12 5 12 12v22" fill="none" stroke="url(#trace)" stroke-width="9" stroke-linecap="round" stroke-linejoin="round"/>
  <path d="M58 92h36" fill="none" stroke="#bfe0ff" stroke-width="7" stroke-linecap="round"/>
  <circle cx="40" cy="38" r="5" fill="#ffffff"/>
  <circle cx="96" cy="84" r="5" fill="#ffffff"/>
  <path d="M22 96c16-2 27-8 38-20 6-6 12-11 22-15 10-4 21-5 28-5" fill="none" stroke="rgba(196,226,255,0.65)" stroke-width="4" stroke-linecap="round"/>
</svg>
